<svg id="visual" viewBox="0 0 675 900" width="675" height="900" xmlns="http://www.w3.org/2000/svg" xmlns:xlink="http://www.w3.org/1999/xlink" version="1.1"><path d="M451 900L462.3 870C473.7 840 496.3 780 500.8 720C505.3 660 491.7 600 495 540C498.3 480 518.7 420 523.2 360C527.7 300 516.3 240 500.5 180C484.7 120 464.3 60 454.2 30L444 0L675 0L675 30C675 60 675 120 675 180C675 240 675 300 675 360C675 420 675 480 675 540C675 600 675 660 675 720C675 780 675 840 675 870L675 900Z" fill="#37b3ba"></path><path d="M370 900L371.2 870C372.3 840 374.7 780 379.2 720C383.7 660 390.3 600 394.8 540C399.3 480 401.7 420 398.3 360C395 300 386 240 374.8 180C363.7 120 350.3 60 343.7 30L337 0L445 0L455.2 30C465.3 60 485.7 120 501.5 180C517.3 240 528.7 300 524.2 360C519.7 420 499.3 480 496 540C492.7 600 506.3 660 501.8 720C497.3 780 474.7 840 463.3 870L452 900Z" fill="#2ea6ad"></path><path d="M316 900L315 870C314 840 312 780 312 720C312 660 314 600 317.3 540C320.7 480 325.3 420 323.2 360C321 300 312 240 304.2 180C296.3 120 289.7 60 286.3 30L283 0L338 0L344.7 30C351.3 60 364.7 120 375.8 180C387 240 396 300 399.3 360C402.7 420 400.3 480 395.8 540C391.3 600 384.7 660 380.2 720C375.7 780 373.3 840 372.2 870L371 900Z" fill="#259aa0"></path><path d="M87 900L89.2 870C91.3 840 95.7 780 99 720C102.3 660 104.7 600 111.5 540C118.3 480 129.7 420 136.3 360C143 300 145 240 142.7 180C140.3 120 133.7 60 130.3 30L127 0L284 0L287.3 30C290.7 60 297.3 120 305.2 180C313 240 322 300 324.2 360C326.3 420 321.7 480 318.3 540C315 600 313 660 313 720C313 780 315 840 316 870L317 900Z" fill="#1b8d93"></path><path d="M0 900L0 870C0 840 0 780 0 720C0 660 0 600 0 540C0 480 0 420 0 360C0 300 0 240 0 180C0 120 0 60 0 30L0 0L128 0L131.3 30C134.7 60 141.3 120 143.7 180C146 240 144 300 137.3 360C130.7 420 119.3 480 112.5 540C105.7 600 103.3 660 100 720C96.7 780 92.3 840 90.2 870L88 900Z" fill="#0f8187"></path></svg>